<svg width="7" height="12" viewBox="0 0 7 12" fill="none" xmlns="http://www.w3.org/2000/svg">
<path fill-rule="evenodd" clip-rule="evenodd" d="M6.37412 0.125877C6.41402 0.165677 6.44568 0.212959 6.46728 0.265013C6.48888 0.317066 6.5 0.37287 6.5 0.429228C6.5 0.485585 6.48888 0.541389 6.46728 0.593443C6.44568 0.645497 6.41402 0.692779 6.37412 0.732579L1.53507 5.57077L6.37412 10.409C6.41396 10.4488 6.44556 10.4961 6.46712 10.5481C6.48868 10.6002 6.49978 10.656 6.49978 10.7123C6.49978 10.7687 6.48868 10.8244 6.46712 10.8765C6.44556 10.9285 6.41396 10.9758 6.37412 11.0157C6.33429 11.0555 6.28699 11.0871 6.23494 11.1087C6.1829 11.1302 6.12711 11.1413 6.07077 11.1413C6.01443 11.1413 5.95865 11.1302 5.9066 11.1087C5.85455 11.0871 5.80726 11.0555 5.76742 11.0157L0.625877 5.87412C0.585976 5.83432 0.554318 5.78704 0.532719 5.73499C0.511118 5.68293 0.5 5.62713 0.5 5.57077C0.5 5.51441 0.511118 5.45861 0.532719 5.40656C0.554318 5.3545 0.585976 5.30722 0.625877 5.26742L5.76742 0.125877C5.80722 0.0859757 5.8545 0.0543185 5.90656 0.0327185C5.95861 0.0111185 6.01441 0 6.07077 0C6.12713 0 6.18293 0.0111185 6.23499 0.0327185C6.28704 0.0543185 6.33432 0.0859757 6.37412 0.125877Z" fill="#ADADAD"/>
</svg>
